<?xml version="1.0" encoding="utf-8"?>
<!-- Generator: Adobe Illustrator 27.9.0, SVG Export Plug-In . SVG Version: 6.00 Build 0)  -->
<svg version="1.1" id="Layer_1" xmlns="http://www.w3.org/2000/svg" xmlns:xlink="http://www.w3.org/1999/xlink" x="0px" y="0px"
	 viewBox="0 0 677.8 860" style="enable-background:new 0 0 677.8 860;" xml:space="preserve">
<style type="text/css">
	.st0{fill:#00285E;}
	.st1{fill:#FFFFFF;}
</style>
<path id="path10349_00000016778091155709506910000013611405342347709102_" class="st0" d="M552.7,209.3c-3-9.5-10.1-17.2-19-21.9
	L353,100.8c-4.7-2.4-10.1-3-14.8-3s-10.1,0-14.8,1.2l-180.7,87.1c-8.9,4.1-15.4,11.9-17.8,21.9l-44.4,195
	c-1.8,10.1,0.6,20.1,6.5,28.4l125,154.7c7.1,7.1,17.2,11.9,27.3,12.4h199.1c10.7,1.2,20.7-3.6,27.3-12.4l125-154.7
	c5.9-8.3,8.3-18.4,7.1-28.4L552.7,209.3L552.7,209.3z"/>
<path class="st1" d="M524.8,373.2l-5.5-42c-5.6-43-45.4-73.5-88.3-67.9l-100.5,13.1c-1.1-15.5,0.1-45.1,24.1-58.6
	c6.1,8.4,16,14,27.3,14c18.6,0,33.7-15.1,33.7-33.7s-15.1-33.7-33.7-33.7c-18.6,0-33.7,15.1-33.7,33.7c0,0-37.2,26.1-32.6,80.3
	L221,290.7c-43,5.6-73.5,45.4-67.9,88.3l5.5,42c5.6,43,45.4,73.5,88.3,67.9l209.9-27.4C499.8,455.9,530.4,416.1,524.8,373.2z
	 M248.2,421.4c-18.6,0-33.7-15.1-33.7-33.7s15.1-33.7,33.7-33.7s33.7,15.1,33.7,33.7S266.9,421.4,248.2,421.4z M343.1,425.6
	c-18.5,1.5-34.7-10.9-36.1-27.8c-0.2-2.7,2-5.1,5-5.3l56.4-4.6c3-0.2,5.5,1.7,5.8,4.4C375.6,409.2,361.7,424.1,343.1,425.6z
	 M429.6,397.8c-18.6,0-33.7-15.1-33.7-33.7s15.1-33.7,33.7-33.7s33.7,15.1,33.7,33.7S448.2,397.8,429.6,397.8z"/>
<g>
	<path class="st0" d="M187.6,735.7v13.2h-54.8v-84h54.6v13.2h-40.9v20.8h37.1V712h-37.1v23.6H187.6z"/>
	<path class="st0" d="M217.8,743.2v-13.7c6.5,4.1,15.8,7.9,27.6,7.9c11.6,0,17.3-4.4,17.3-11.3s-4.8-9.7-14-12.8l-6.5-2.3
		c-13.9-4.9-23.4-9.8-23.4-24c0-15.1,13-23.8,30.1-23.8c9.2,0,16.9,1.7,22.1,4.8v13.4c-6.7-3.6-14.6-5.3-22.3-5.3
		c-10.1,0-16.2,3.4-16.2,10.3c0,6.5,5.3,9,14.8,12.2l6.1,2.2c12.5,4.3,23,10.1,23,24.7c0,15.6-12.7,24.7-30.7,24.7
		C233.9,750.4,223,746.9,217.8,743.2z"/>
	<path class="st0" d="M304.9,743.2v-13.7c6.5,4.1,15.8,7.9,27.6,7.9c11.6,0,17.3-4.4,17.3-11.3s-4.8-9.7-14-12.8l-6.5-2.3
		c-13.9-4.9-23.4-9.8-23.4-24c0-15.1,13-23.8,30.1-23.8c9.2,0,16.9,1.7,22.1,4.8v13.4c-6.7-3.6-14.6-5.3-22.3-5.3
		c-10.1,0-16.2,3.4-16.2,10.3c0,6.5,5.3,9,14.8,12.2l6.1,2.2c12.5,4.3,23,10.1,23,24.7c0,15.6-12.7,24.7-30.7,24.7
		C321,750.4,310.1,746.9,304.9,743.2z"/>
	<path class="st0" d="M465.2,664.9l-29.6,84h-17.5l-29.6-84h14.8l23.8,68.9l23.8-68.9H465.2z"/>
	<path class="st0" d="M515.3,749v-70.9h-25.4v-13.2h64.4v13.2H529V749H515.3z"/>
</g>
<path class="st1" d="M325.7,523.9c-4.5,1.6-9.4-0.6-11.1-5.1c-1.6-4.5,0.6-9.4,5.1-11.1c0,0,0,0,0,0l47.2-17.2
	c4.4-1.7,9.3,0.5,11,4.9c0,0.1,0.1,0.1,0.1,0.2c1.6,4.3-0.6,9.1-4.8,10.7c-0.1,0-0.2,0.1-0.3,0.1L325.7,523.9z"/>
<path class="st1" d="M325.7,549.5c-4.5,1.6-9.4-0.7-11.1-5.1s0.7-9.4,5.1-11.1c0,0,0,0,0,0l47.2-17.2c4.4-1.7,9.3,0.5,11,4.9
	c0,0.1,0.1,0.2,0.1,0.3c1.6,4.3-0.5,9-4.8,10.7c-0.1,0-0.2,0.1-0.3,0.1L325.7,549.5z"/>
<path class="st1" d="M325.7,575.1c-4.5,1.6-9.4-0.6-11.1-5.1c-1.6-4.5,0.6-9.4,5.1-11.1c0,0,0,0,0,0l47.2-17.2
	c4.4-1.7,9.3,0.5,11,4.8c0,0.1,0.1,0.2,0.1,0.3c1.6,4.3-0.5,9-4.8,10.7c-0.1,0-0.2,0.1-0.3,0.1L325.7,575.1z"/>
</svg>
